<mxfile host="Electron" agent="Mozilla/5.0 (Windows NT 10.0; Win64; x64) AppleWebKit/537.36 (KHTML, like Gecko) draw.io/28.1.2 Chrome/138.0.7204.243 Electron/37.4.0 Safari/537.36" version="28.1.2">
  <diagram name="Page-1" id="Qnqrf3mM9ic47OpevB5z">
    <mxGraphModel dx="496" dy="1124" grid="1" gridSize="10" guides="1" tooltips="1" connect="1" arrows="1" fold="1" page="1" pageScale="1" pageWidth="1600" pageHeight="900" math="0" shadow="0">
      <root>
        <mxCell id="0" />
        <mxCell id="1" parent="0" />
        <mxCell id="ktRouUgQBSJWXrkZJeMn-16" value="" style="rounded=1;whiteSpace=wrap;html=1;fillColor=none;strokeColor=#C2C2C2;" vertex="1" parent="1">
          <mxGeometry x="680" y="200" width="200" height="600" as="geometry" />
        </mxCell>
        <mxCell id="w7vcbSv_xa6yoVL9aL-E-1" value="DATA FLOW DIAGRAM" style="text;html=1;align=center;verticalAlign=middle;whiteSpace=wrap;rounded=0;fontSize=26;" parent="1" vertex="1">
          <mxGeometry x="30" y="20" width="280" height="40" as="geometry" />
        </mxCell>
        <mxCell id="w7vcbSv_xa6yoVL9aL-E-3" value="" style="rounded=0;whiteSpace=wrap;html=1;fillColor=none;dashed=1;" parent="1" vertex="1">
          <mxGeometry x="120" y="200" width="200" height="600" as="geometry" />
        </mxCell>
        <mxCell id="w7vcbSv_xa6yoVL9aL-E-4" value="SOURCES" style="text;html=1;align=center;verticalAlign=middle;whiteSpace=wrap;rounded=0;fontSize=19;fillColor=default;" parent="1" vertex="1">
          <mxGeometry x="165" y="180" width="110" height="30" as="geometry" />
        </mxCell>
        <mxCell id="w7vcbSv_xa6yoVL9aL-E-34" style="edgeStyle=orthogonalEdgeStyle;rounded=0;orthogonalLoop=1;jettySize=auto;html=1;" parent="1" source="w7vcbSv_xa6yoVL9aL-E-5" edge="1">
          <mxGeometry relative="1" as="geometry">
            <mxPoint x="410" y="365.0000000000001" as="targetPoint" />
          </mxGeometry>
        </mxCell>
        <mxCell id="w7vcbSv_xa6yoVL9aL-E-35" style="edgeStyle=orthogonalEdgeStyle;rounded=0;orthogonalLoop=1;jettySize=auto;html=1;entryX=0;entryY=0.5;entryDx=0;entryDy=0;" parent="1" source="w7vcbSv_xa6yoVL9aL-E-5" target="w7vcbSv_xa6yoVL9aL-E-10" edge="1">
          <mxGeometry relative="1" as="geometry" />
        </mxCell>
        <mxCell id="w7vcbSv_xa6yoVL9aL-E-36" style="edgeStyle=orthogonalEdgeStyle;rounded=0;orthogonalLoop=1;jettySize=auto;html=1;entryX=0;entryY=0.5;entryDx=0;entryDy=0;" parent="1" source="w7vcbSv_xa6yoVL9aL-E-5" target="w7vcbSv_xa6yoVL9aL-E-12" edge="1">
          <mxGeometry relative="1" as="geometry" />
        </mxCell>
        <mxCell id="w7vcbSv_xa6yoVL9aL-E-5" value="CRM" style="image;aspect=fixed;html=1;points=[];align=center;fontSize=14;image=img/lib/azure2/general/Folder_Blank.svg;" parent="1" vertex="1">
          <mxGeometry x="176.87" y="330" width="86.25" height="70" as="geometry" />
        </mxCell>
        <mxCell id="w7vcbSv_xa6yoVL9aL-E-30" style="edgeStyle=orthogonalEdgeStyle;rounded=0;orthogonalLoop=1;jettySize=auto;html=1;entryX=0;entryY=0.5;entryDx=0;entryDy=0;" parent="1" source="w7vcbSv_xa6yoVL9aL-E-6" target="w7vcbSv_xa6yoVL9aL-E-14" edge="1">
          <mxGeometry relative="1" as="geometry" />
        </mxCell>
        <mxCell id="w7vcbSv_xa6yoVL9aL-E-33" style="edgeStyle=orthogonalEdgeStyle;rounded=0;orthogonalLoop=1;jettySize=auto;html=1;entryX=0;entryY=0.5;entryDx=0;entryDy=0;" parent="1" source="w7vcbSv_xa6yoVL9aL-E-6" target="w7vcbSv_xa6yoVL9aL-E-15" edge="1">
          <mxGeometry relative="1" as="geometry" />
        </mxCell>
        <mxCell id="w7vcbSv_xa6yoVL9aL-E-6" value="ERP" style="image;aspect=fixed;html=1;points=[];align=center;fontSize=14;image=img/lib/azure2/general/Folder_Blank.svg;" parent="1" vertex="1">
          <mxGeometry x="176.88" y="610" width="86.25" height="70" as="geometry" />
        </mxCell>
        <mxCell id="w7vcbSv_xa6yoVL9aL-E-7" value="" style="rounded=1;whiteSpace=wrap;html=1;fillColor=none;strokeColor=#FFB570;" parent="1" vertex="1">
          <mxGeometry x="400" y="200" width="200" height="600" as="geometry" />
        </mxCell>
        <mxCell id="w7vcbSv_xa6yoVL9aL-E-8" value="" style="rounded=1;whiteSpace=wrap;html=1;fillColor=default;strokeColor=#FFB570;" parent="1" vertex="1">
          <mxGeometry x="400" y="120" width="200" height="60" as="geometry" />
        </mxCell>
        <mxCell id="w7vcbSv_xa6yoVL9aL-E-9" value="BRONZE LAYER" style="text;html=1;align=center;verticalAlign=middle;whiteSpace=wrap;rounded=0;fontSize=23;fillColor=default;" parent="1" vertex="1">
          <mxGeometry x="400" y="135" width="200" height="30" as="geometry" />
        </mxCell>
        <mxCell id="w7vcbSv_xa6yoVL9aL-E-16" value="" style="group" parent="1" vertex="1" connectable="0">
          <mxGeometry x="410" y="255" width="200" height="220" as="geometry" />
        </mxCell>
        <mxCell id="w7vcbSv_xa6yoVL9aL-E-10" value="" style="rounded=1;whiteSpace=wrap;html=1;fillColor=default;strokeColor=#FFB570;" parent="w7vcbSv_xa6yoVL9aL-E-16" vertex="1">
          <mxGeometry width="180" height="60" as="geometry" />
        </mxCell>
        <mxCell id="w7vcbSv_xa6yoVL9aL-E-11" value="" style="rounded=1;whiteSpace=wrap;html=1;fillColor=default;strokeColor=#FFB570;" parent="w7vcbSv_xa6yoVL9aL-E-16" vertex="1">
          <mxGeometry y="80" width="180" height="60" as="geometry" />
        </mxCell>
        <mxCell id="w7vcbSv_xa6yoVL9aL-E-12" value="" style="rounded=1;whiteSpace=wrap;html=1;fillColor=default;strokeColor=#FFB570;" parent="w7vcbSv_xa6yoVL9aL-E-16" vertex="1">
          <mxGeometry y="160" width="180" height="60" as="geometry" />
        </mxCell>
        <mxCell id="w7vcbSv_xa6yoVL9aL-E-18" value="crm_sales_details" style="text;html=1;align=center;verticalAlign=middle;whiteSpace=wrap;rounded=0;fontSize=18;fillColor=none;" parent="w7vcbSv_xa6yoVL9aL-E-16" vertex="1">
          <mxGeometry x="10" y="15" width="160" height="30" as="geometry" />
        </mxCell>
        <mxCell id="w7vcbSv_xa6yoVL9aL-E-19" value="crm_sales_details" style="text;html=1;align=center;verticalAlign=middle;whiteSpace=wrap;rounded=0;fontSize=18;fillColor=none;" parent="w7vcbSv_xa6yoVL9aL-E-16" vertex="1">
          <mxGeometry x="10" y="95" width="160" height="30" as="geometry" />
        </mxCell>
        <mxCell id="w7vcbSv_xa6yoVL9aL-E-20" value="crm_prd_info" style="text;html=1;align=center;verticalAlign=middle;whiteSpace=wrap;rounded=0;fontSize=18;fillColor=none;" parent="w7vcbSv_xa6yoVL9aL-E-16" vertex="1">
          <mxGeometry x="10" y="175" width="160" height="30" as="geometry" />
        </mxCell>
        <mxCell id="w7vcbSv_xa6yoVL9aL-E-17" value="" style="group" parent="1" vertex="1" connectable="0">
          <mxGeometry x="410" y="535" width="180" height="220" as="geometry" />
        </mxCell>
        <mxCell id="w7vcbSv_xa6yoVL9aL-E-13" value="" style="rounded=1;whiteSpace=wrap;html=1;fillColor=default;strokeColor=#FFB570;" parent="w7vcbSv_xa6yoVL9aL-E-17" vertex="1">
          <mxGeometry width="180" height="60" as="geometry" />
        </mxCell>
        <mxCell id="w7vcbSv_xa6yoVL9aL-E-14" value="" style="rounded=1;whiteSpace=wrap;html=1;fillColor=default;strokeColor=#FFB570;" parent="w7vcbSv_xa6yoVL9aL-E-17" vertex="1">
          <mxGeometry y="80" width="180" height="60" as="geometry" />
        </mxCell>
        <mxCell id="w7vcbSv_xa6yoVL9aL-E-15" value="" style="rounded=1;whiteSpace=wrap;html=1;fillColor=default;strokeColor=#FFB570;" parent="w7vcbSv_xa6yoVL9aL-E-17" vertex="1">
          <mxGeometry y="160" width="180" height="60" as="geometry" />
        </mxCell>
        <mxCell id="w7vcbSv_xa6yoVL9aL-E-24" value="erp_cust_az12" style="text;html=1;align=center;verticalAlign=middle;whiteSpace=wrap;rounded=0;fontSize=18;fillColor=none;" parent="w7vcbSv_xa6yoVL9aL-E-17" vertex="1">
          <mxGeometry x="10" y="15" width="160" height="30" as="geometry" />
        </mxCell>
        <mxCell id="w7vcbSv_xa6yoVL9aL-E-27" value="erp_loc_a101" style="text;html=1;align=center;verticalAlign=middle;whiteSpace=wrap;rounded=0;fontSize=18;fillColor=none;" parent="w7vcbSv_xa6yoVL9aL-E-17" vertex="1">
          <mxGeometry x="10" y="95" width="160" height="30" as="geometry" />
        </mxCell>
        <mxCell id="w7vcbSv_xa6yoVL9aL-E-28" value="erp_px_cat_g1v2" style="text;html=1;align=center;verticalAlign=middle;whiteSpace=wrap;rounded=0;fontSize=18;fillColor=none;" parent="w7vcbSv_xa6yoVL9aL-E-17" vertex="1">
          <mxGeometry x="10" y="175" width="160" height="30" as="geometry" />
        </mxCell>
        <mxCell id="w7vcbSv_xa6yoVL9aL-E-32" style="edgeStyle=orthogonalEdgeStyle;rounded=0;orthogonalLoop=1;jettySize=auto;html=1;entryX=0;entryY=0.5;entryDx=0;entryDy=0;" parent="1" source="w7vcbSv_xa6yoVL9aL-E-6" target="w7vcbSv_xa6yoVL9aL-E-13" edge="1">
          <mxGeometry relative="1" as="geometry" />
        </mxCell>
        <mxCell id="ktRouUgQBSJWXrkZJeMn-1" value="SILVER LAYER" style="rounded=1;whiteSpace=wrap;html=1;fillColor=default;strokeColor=light-dark(#FFB570,#C2C2C2);fontSize=23;" vertex="1" parent="1">
          <mxGeometry x="680" y="120" width="200" height="60" as="geometry" />
        </mxCell>
        <mxCell id="ktRouUgQBSJWXrkZJeMn-2" value="" style="group" vertex="1" connectable="0" parent="1">
          <mxGeometry x="670" y="255" width="200" height="545" as="geometry" />
        </mxCell>
        <mxCell id="ktRouUgQBSJWXrkZJeMn-3" value="" style="rounded=1;whiteSpace=wrap;html=1;fillColor=default;strokeColor=#C2C2C2;" vertex="1" parent="ktRouUgQBSJWXrkZJeMn-2">
          <mxGeometry x="20" width="180" height="60" as="geometry" />
        </mxCell>
        <mxCell id="ktRouUgQBSJWXrkZJeMn-4" value="" style="rounded=1;whiteSpace=wrap;html=1;fillColor=default;strokeColor=#C2C2C2;" vertex="1" parent="ktRouUgQBSJWXrkZJeMn-2">
          <mxGeometry x="20" y="80" width="180" height="60" as="geometry" />
        </mxCell>
        <mxCell id="ktRouUgQBSJWXrkZJeMn-5" value="" style="rounded=1;whiteSpace=wrap;html=1;fillColor=default;strokeColor=#C2C2C2;" vertex="1" parent="ktRouUgQBSJWXrkZJeMn-2">
          <mxGeometry x="20" y="160" width="180" height="60" as="geometry" />
        </mxCell>
        <mxCell id="ktRouUgQBSJWXrkZJeMn-6" value="crm_sales_details" style="text;html=1;align=center;verticalAlign=middle;whiteSpace=wrap;rounded=0;fontSize=18;fillColor=none;" vertex="1" parent="ktRouUgQBSJWXrkZJeMn-2">
          <mxGeometry x="30" y="15" width="160" height="30" as="geometry" />
        </mxCell>
        <mxCell id="ktRouUgQBSJWXrkZJeMn-7" value="crm_sales_details" style="text;html=1;align=center;verticalAlign=middle;whiteSpace=wrap;rounded=0;fontSize=18;fillColor=none;" vertex="1" parent="ktRouUgQBSJWXrkZJeMn-2">
          <mxGeometry x="30" y="95" width="160" height="30" as="geometry" />
        </mxCell>
        <mxCell id="ktRouUgQBSJWXrkZJeMn-8" value="crm_prd_info" style="text;html=1;align=center;verticalAlign=middle;whiteSpace=wrap;rounded=0;fontSize=18;fillColor=none;" vertex="1" parent="ktRouUgQBSJWXrkZJeMn-2">
          <mxGeometry x="30" y="175" width="160" height="30" as="geometry" />
        </mxCell>
        <mxCell id="ktRouUgQBSJWXrkZJeMn-9" value="" style="group" vertex="1" connectable="0" parent="1">
          <mxGeometry x="670" y="535" width="180" height="220" as="geometry" />
        </mxCell>
        <mxCell id="ktRouUgQBSJWXrkZJeMn-10" value="" style="rounded=1;whiteSpace=wrap;html=1;fillColor=default;strokeColor=#C2C2C2;" vertex="1" parent="ktRouUgQBSJWXrkZJeMn-9">
          <mxGeometry x="20" width="180" height="60" as="geometry" />
        </mxCell>
        <mxCell id="ktRouUgQBSJWXrkZJeMn-11" value="" style="rounded=1;whiteSpace=wrap;html=1;fillColor=default;strokeColor=#C2C2C2;" vertex="1" parent="ktRouUgQBSJWXrkZJeMn-9">
          <mxGeometry x="20" y="80" width="180" height="60" as="geometry" />
        </mxCell>
        <mxCell id="ktRouUgQBSJWXrkZJeMn-12" value="" style="rounded=1;whiteSpace=wrap;html=1;fillColor=default;strokeColor=#C2C2C2;" vertex="1" parent="ktRouUgQBSJWXrkZJeMn-9">
          <mxGeometry x="20" y="160" width="180" height="60" as="geometry" />
        </mxCell>
        <mxCell id="ktRouUgQBSJWXrkZJeMn-13" value="erp_cust_az12" style="text;html=1;align=center;verticalAlign=middle;whiteSpace=wrap;rounded=0;fontSize=18;fillColor=none;" vertex="1" parent="ktRouUgQBSJWXrkZJeMn-9">
          <mxGeometry x="30" y="15" width="160" height="30" as="geometry" />
        </mxCell>
        <mxCell id="ktRouUgQBSJWXrkZJeMn-14" value="erp_loc_a101" style="text;html=1;align=center;verticalAlign=middle;whiteSpace=wrap;rounded=0;fontSize=18;fillColor=none;" vertex="1" parent="ktRouUgQBSJWXrkZJeMn-9">
          <mxGeometry x="30" y="95" width="160" height="30" as="geometry" />
        </mxCell>
        <mxCell id="ktRouUgQBSJWXrkZJeMn-15" value="erp_px_cat_g1v2" style="text;html=1;align=center;verticalAlign=middle;whiteSpace=wrap;rounded=0;fontSize=18;fillColor=none;" vertex="1" parent="ktRouUgQBSJWXrkZJeMn-9">
          <mxGeometry x="30" y="175" width="160" height="30" as="geometry" />
        </mxCell>
        <mxCell id="ktRouUgQBSJWXrkZJeMn-17" value="" style="endArrow=classic;html=1;rounded=0;exitX=1;exitY=0.5;exitDx=0;exitDy=0;entryX=0;entryY=0.5;entryDx=0;entryDy=0;" edge="1" parent="1" source="w7vcbSv_xa6yoVL9aL-E-10" target="ktRouUgQBSJWXrkZJeMn-3">
          <mxGeometry width="50" height="50" relative="1" as="geometry">
            <mxPoint x="430" y="420" as="sourcePoint" />
            <mxPoint x="480" y="370" as="targetPoint" />
          </mxGeometry>
        </mxCell>
        <mxCell id="ktRouUgQBSJWXrkZJeMn-18" value="" style="endArrow=classic;html=1;rounded=0;exitX=1;exitY=0.5;exitDx=0;exitDy=0;entryX=0;entryY=0.5;entryDx=0;entryDy=0;" edge="1" parent="1" source="w7vcbSv_xa6yoVL9aL-E-11" target="ktRouUgQBSJWXrkZJeMn-4">
          <mxGeometry width="50" height="50" relative="1" as="geometry">
            <mxPoint x="630" y="280" as="sourcePoint" />
            <mxPoint x="730" y="280" as="targetPoint" />
          </mxGeometry>
        </mxCell>
        <mxCell id="ktRouUgQBSJWXrkZJeMn-19" value="" style="endArrow=classic;html=1;rounded=0;exitX=1;exitY=0.5;exitDx=0;exitDy=0;entryX=0;entryY=0.5;entryDx=0;entryDy=0;" edge="1" parent="1" source="w7vcbSv_xa6yoVL9aL-E-12" target="ktRouUgQBSJWXrkZJeMn-5">
          <mxGeometry width="50" height="50" relative="1" as="geometry">
            <mxPoint x="690" y="360" as="sourcePoint" />
            <mxPoint x="790" y="360" as="targetPoint" />
          </mxGeometry>
        </mxCell>
        <mxCell id="ktRouUgQBSJWXrkZJeMn-21" value="" style="endArrow=classic;html=1;rounded=0;exitX=1;exitY=0.5;exitDx=0;exitDy=0;entryX=0;entryY=0.5;entryDx=0;entryDy=0;" edge="1" parent="1" source="w7vcbSv_xa6yoVL9aL-E-13" target="ktRouUgQBSJWXrkZJeMn-10">
          <mxGeometry width="50" height="50" relative="1" as="geometry">
            <mxPoint x="680" y="740" as="sourcePoint" />
            <mxPoint x="780" y="740" as="targetPoint" />
          </mxGeometry>
        </mxCell>
        <mxCell id="ktRouUgQBSJWXrkZJeMn-22" value="" style="endArrow=classic;html=1;rounded=0;exitX=1;exitY=0.5;exitDx=0;exitDy=0;entryX=0;entryY=0.5;entryDx=0;entryDy=0;" edge="1" parent="1" source="w7vcbSv_xa6yoVL9aL-E-14" target="ktRouUgQBSJWXrkZJeMn-11">
          <mxGeometry width="50" height="50" relative="1" as="geometry">
            <mxPoint x="630" y="630" as="sourcePoint" />
            <mxPoint x="730" y="630" as="targetPoint" />
          </mxGeometry>
        </mxCell>
        <mxCell id="ktRouUgQBSJWXrkZJeMn-23" value="" style="endArrow=classic;html=1;rounded=0;exitX=1;exitY=0.5;exitDx=0;exitDy=0;entryX=0;entryY=0.5;entryDx=0;entryDy=0;" edge="1" parent="1" source="w7vcbSv_xa6yoVL9aL-E-15" target="ktRouUgQBSJWXrkZJeMn-12">
          <mxGeometry width="50" height="50" relative="1" as="geometry">
            <mxPoint x="640" y="660" as="sourcePoint" />
            <mxPoint x="740" y="660" as="targetPoint" />
          </mxGeometry>
        </mxCell>
        <mxCell id="ktRouUgQBSJWXrkZJeMn-24" value="" style="rounded=1;whiteSpace=wrap;html=1;fillColor=none;strokeColor=#FFB570;" vertex="1" parent="1">
          <mxGeometry x="960" y="200" width="200" height="600" as="geometry" />
        </mxCell>
        <mxCell id="ktRouUgQBSJWXrkZJeMn-25" value="GOLD LAYER" style="rounded=1;whiteSpace=wrap;html=1;fillColor=default;strokeColor=#FFB570;fontSize=23;" vertex="1" parent="1">
          <mxGeometry x="960" y="120" width="200" height="60" as="geometry" />
        </mxCell>
        <mxCell id="ktRouUgQBSJWXrkZJeMn-26" value="" style="group" vertex="1" connectable="0" parent="1">
          <mxGeometry x="950" y="255" width="200" height="545" as="geometry" />
        </mxCell>
        <mxCell id="ktRouUgQBSJWXrkZJeMn-27" value="" style="rounded=1;whiteSpace=wrap;html=1;fillColor=default;strokeColor=#FFB570;" vertex="1" parent="ktRouUgQBSJWXrkZJeMn-26">
          <mxGeometry x="20" width="180" height="60" as="geometry" />
        </mxCell>
        <mxCell id="ktRouUgQBSJWXrkZJeMn-28" value="" style="rounded=1;whiteSpace=wrap;html=1;fillColor=default;strokeColor=#FFB570;" vertex="1" parent="ktRouUgQBSJWXrkZJeMn-26">
          <mxGeometry x="20" y="175" width="180" height="60" as="geometry" />
        </mxCell>
        <mxCell id="ktRouUgQBSJWXrkZJeMn-29" value="" style="rounded=1;whiteSpace=wrap;html=1;fillColor=default;strokeColor=#FFB570;" vertex="1" parent="ktRouUgQBSJWXrkZJeMn-26">
          <mxGeometry x="20" y="355" width="180" height="60" as="geometry" />
        </mxCell>
        <mxCell id="ktRouUgQBSJWXrkZJeMn-30" value="fact_sales" style="text;html=1;align=center;verticalAlign=middle;whiteSpace=wrap;rounded=0;fontSize=18;fillColor=none;" vertex="1" parent="ktRouUgQBSJWXrkZJeMn-26">
          <mxGeometry x="30" y="15" width="160" height="30" as="geometry" />
        </mxCell>
        <mxCell id="ktRouUgQBSJWXrkZJeMn-31" value="dm_customers" style="text;html=1;align=center;verticalAlign=middle;whiteSpace=wrap;rounded=0;fontSize=18;fillColor=none;" vertex="1" parent="ktRouUgQBSJWXrkZJeMn-26">
          <mxGeometry x="30" y="190" width="160" height="30" as="geometry" />
        </mxCell>
        <mxCell id="ktRouUgQBSJWXrkZJeMn-32" value="dim_products" style="text;html=1;align=center;verticalAlign=middle;whiteSpace=wrap;rounded=0;fontSize=18;fillColor=none;" vertex="1" parent="ktRouUgQBSJWXrkZJeMn-26">
          <mxGeometry x="30" y="370" width="160" height="30" as="geometry" />
        </mxCell>
        <mxCell id="ktRouUgQBSJWXrkZJeMn-33" value="" style="endArrow=classic;html=1;rounded=0;exitX=1;exitY=0.5;exitDx=0;exitDy=0;entryX=0;entryY=0.5;entryDx=0;entryDy=0;" edge="1" parent="1" source="ktRouUgQBSJWXrkZJeMn-3" target="ktRouUgQBSJWXrkZJeMn-30">
          <mxGeometry width="50" height="50" relative="1" as="geometry">
            <mxPoint x="880" y="480" as="sourcePoint" />
            <mxPoint x="930" y="430" as="targetPoint" />
          </mxGeometry>
        </mxCell>
        <mxCell id="ktRouUgQBSJWXrkZJeMn-34" value="" style="endArrow=classic;html=1;rounded=0;exitX=1;exitY=0.5;exitDx=0;exitDy=0;entryX=0;entryY=0.5;entryDx=0;entryDy=0;" edge="1" parent="1" source="ktRouUgQBSJWXrkZJeMn-4" target="ktRouUgQBSJWXrkZJeMn-28">
          <mxGeometry width="50" height="50" relative="1" as="geometry">
            <mxPoint x="880" y="480" as="sourcePoint" />
            <mxPoint x="930" y="430" as="targetPoint" />
          </mxGeometry>
        </mxCell>
        <mxCell id="ktRouUgQBSJWXrkZJeMn-35" value="" style="endArrow=classic;html=1;rounded=0;exitX=1;exitY=0.25;exitDx=0;exitDy=0;" edge="1" parent="1" source="ktRouUgQBSJWXrkZJeMn-10">
          <mxGeometry width="50" height="50" relative="1" as="geometry">
            <mxPoint x="880" y="480" as="sourcePoint" />
            <mxPoint x="970" y="450" as="targetPoint" />
          </mxGeometry>
        </mxCell>
        <mxCell id="ktRouUgQBSJWXrkZJeMn-36" value="" style="endArrow=classic;html=1;rounded=0;exitX=1;exitY=0.5;exitDx=0;exitDy=0;entryX=0;entryY=0.5;entryDx=0;entryDy=0;" edge="1" parent="1" source="ktRouUgQBSJWXrkZJeMn-11" target="ktRouUgQBSJWXrkZJeMn-28">
          <mxGeometry width="50" height="50" relative="1" as="geometry">
            <mxPoint x="880" y="480" as="sourcePoint" />
            <mxPoint x="930" y="430" as="targetPoint" />
          </mxGeometry>
        </mxCell>
        <mxCell id="ktRouUgQBSJWXrkZJeMn-37" value="" style="endArrow=classic;html=1;rounded=0;exitX=1;exitY=0.5;exitDx=0;exitDy=0;entryX=0;entryY=0.25;entryDx=0;entryDy=0;" edge="1" parent="1" source="ktRouUgQBSJWXrkZJeMn-5" target="ktRouUgQBSJWXrkZJeMn-29">
          <mxGeometry width="50" height="50" relative="1" as="geometry">
            <mxPoint x="880" y="480" as="sourcePoint" />
            <mxPoint x="930" y="430" as="targetPoint" />
          </mxGeometry>
        </mxCell>
        <mxCell id="ktRouUgQBSJWXrkZJeMn-38" value="" style="endArrow=classic;html=1;rounded=0;entryX=0;entryY=0.5;entryDx=0;entryDy=0;" edge="1" parent="1" target="ktRouUgQBSJWXrkZJeMn-29">
          <mxGeometry width="50" height="50" relative="1" as="geometry">
            <mxPoint x="870" y="730" as="sourcePoint" />
            <mxPoint x="930" y="430" as="targetPoint" />
          </mxGeometry>
        </mxCell>
      </root>
    </mxGraphModel>
  </diagram>
</mxfile>
